Coordinates
version=1
nRows=17
nColumns=36
inDegrees=yes

Units are S.I. units (second, meters, Newtons, ...)
If the header above contains a line with 'inDegrees', this indicates whether rotational values are in degrees (yes) or radians (no).

endheader
time	pelvis_tilt	pelvis_list	pelvis_rotation	pelvis_tx	pelvis_ty	pelvis_tz	hip_flexion_r	hip_adduction_r	hip_rotation_r	knee_angle_r	knee_angle_r_beta	ankle_angle_r	subtalar_angle_r	mtp_angle_r	hip_flexion_l	hip_adduction_l	hip_rotation_l	knee_angle_l	knee_angle_l_beta	ankle_angle_l	subtalar_angle_l	mtp_angle_l	lumbar_extension	lumbar_bending	lumbar_rotation	arm_flex_r	arm_add_r	arm_rot_r	elbow_flex_r	pro_sup_r	arm_flex_l	arm_add_l	arm_rot_l	elbow_flex_l	pro_sup_l
      4.05000000	    -24.67346095	      4.69662365	     -0.71638555	      0.57805957	      0.84101899	      0.14120356	     73.15837771	    -20.36533217	     -2.72270236	     62.38533875	      1.08882957	     14.44862895	     -6.69536433	     -7.49999987	     71.90749621	     -7.18913272	     -1.55152444	     63.43767985	      1.10719638	     17.40368420	    -11.88391701	     -7.49999987	    -40.89437447	      0.90662615	      3.53037614	     57.00311780	    -23.78017537	     18.45152309	    110.36179225	     90.95276253	     59.52700349	    -14.14422544	     21.82285776	    116.39414154	     94.50404361
      4.06666670	    -24.11985150	      4.73040750	     -0.70144030	      0.57294545	      0.85027853	      0.14954823	     70.74446805	    -20.06260040	     -2.93651078	     60.17212716	      1.05020174	     13.83860198	     -6.66565082	     -7.49999987	     69.54573527	     -7.35801327	     -2.13914941	     61.06088308	      1.06571345	     17.07989077	    -11.07517356	     -7.49999987	    -39.23169359	      0.55364203	      3.73909100	     52.68109730	    -24.04368844	     18.13368457	    105.23754124	     90.97344371	     55.15024730	    -14.05772001	     20.99434218	    112.38598770	     94.22684044
      4.08333330	    -23.61551391	      4.62711813	     -0.71989487	      0.57253548	      0.86792058	      0.15481135	     68.15441219	    -19.67815367	     -3.61154907	     57.58057994	      1.00497071	     13.11613549	     -6.57653518	     -7.49999987	     67.15321955	     -7.64203023	     -2.58895680	     58.29856425	      1.01750190	     16.13264799	    -10.70915385	     -7.49999987	    -37.41301430	      0.36847084	      3.68166262	     49.95906925	    -23.82353467	     19.01909935	     99.57527401	     89.43416743	     51.59510655	    -14.45321316	     19.84016418	    107.84161960	     91.38454948
      4.10000000	    -22.96906003	      4.54158007	     -0.83477427	      0.56810159	      0.88355505	      0.15802147	     65.68656085	    -19.22432600	     -4.27600649	     55.07405658	      0.96122362	     12.18848163	     -6.59380567	     -7.49999987	     64.74876718	     -8.03071138	     -3.14947450	     55.56717620	      0.96983018	     14.85958119	    -10.22200904	     -7.49999987	    -36.23511447	      0.18291486	      3.96274363	     46.94311738	    -23.64020128	     18.52536327	     92.57917147	     89.27224073	     49.17972255	    -14.13147511	     19.69052669	    100.57739626	     90.57651271
      4.11666670	    -21.65660122	      4.48100871	     -1.04174658	      0.57906771	      0.89402451	      0.15859992	     62.37136729	    -18.77107627	     -5.02470953	     52.38398952	      0.91427309	     11.43890803	     -6.40693236	     -7.49999987	     61.45110076	     -8.25084115	     -3.56271712	     52.64524405	      0.91883284	     13.39528047	    -10.13682666	     -7.49999987	    -35.51664231	      0.07742271	      3.68678619	     41.61238036	    -22.55713809	     16.54433237	     86.69819903	     88.97257809	     44.48062607	    -13.40901011	     17.37209973	     94.27515577	     90.39246551
      4.13333330	    -20.70655277	      4.59392368	     -1.26435743	      0.57468978	      0.90192134	      0.16205435	     59.92141366	    -18.30198458	     -5.23749168	     50.14239217	      0.87514984	     10.86613875	     -6.22285421	     -7.49999987	     58.73887142	     -8.44155228	     -4.16433794	     50.00035611	      0.87267084	     12.23145123	     -9.81102030	     -7.49999987	    -34.01192805	     -0.27843322	      3.74390161	     37.54806848	    -21.55601899	     14.68177427	     81.82071251	     88.75789946	     40.18859898	    -13.01392142	     15.67249142	     88.18606128	     90.35447689
      4.15000000	    -19.33731905	      4.68614405	     -1.50656684	      0.59207589	      0.91208275	      0.17126494	     56.64252239	    -17.78745801	     -5.60651411	     47.65166781	      0.83167850	     10.61003852	     -5.90918733	     -7.49999987	     55.17058625	     -8.54788261	     -4.65868948	     46.94517749	      0.81934792	     11.00865079	     -9.57282674	     -7.49999987	    -32.69799310	     -0.82068215	      3.83143668	     32.65790623	    -20.60249382	     13.14241612	     76.75242547	     87.26610171	     34.87287532	    -12.29238749	     13.91801859	     82.42858449	     89.12198904
      4.16666670	    -17.69586690	      4.82154476	     -1.83567669	      0.60233275	      0.93760943	      0.17598575	     52.29773714	    -17.26927793	     -6.24892319	     44.02963230	      0.76846205	      9.97402421	     -5.61875433	     -7.49999987	     50.33089337	     -8.50093747	     -5.39043466	     42.43908106	      0.74070170	      8.98302445	     -9.51612470	     -7.49999987	    -31.83443219	     -1.54491984	      4.25114936	     28.65251110	    -19.41243850	     11.49726263	     68.99904083	     85.29595446	     30.95068884	    -11.17949676	     13.01987831	     73.26219730	     90.37030851
      4.18333330	    -16.07711226	      4.86322077	     -2.21484096	      0.60683243	      0.94429027	      0.17379921	     48.18669502	    -16.65246680	     -6.66762734	     40.62710973	      0.70907683	      9.13416836	     -5.28948663	     -7.49999987	     45.70056996	     -8.54745745	     -6.32870691	     38.10462724	      0.66505121	      7.02250067	     -8.91029148	     -7.49999987	    -30.95931697	     -1.99952212	      4.26041979	     25.59334637	    -18.41358660	      9.99003118	     62.75337286	     84.71094604	     27.30747779	    -10.21759859	     10.85866338	     67.04385764	     89.95311451
      4.20000000	    -14.93518651	      4.91132974	     -2.52039239	      0.60718811	      0.95040482	      0.17453020	     45.07018316	    -16.09010492	     -6.84311525	     37.81332082	      0.65996695	      8.26800439	     -5.17042549	     -7.49999987	     42.18959872	     -8.55144752	     -7.23449412	     34.59306734	      0.60376292	      5.56105794	     -8.36924992	     -7.49999987	    -29.28019058	     -2.37810475	      4.45638372	     23.27056920	    -17.73307812	      8.96565906	     57.15412233	     84.30651530	     24.39168153	     -9.52139312	      9.03304482	     61.48912363	     89.73333633
      4.21666670	    -13.70153021	      4.83563303	     -2.86037905	      0.61258377	      0.97357468	      0.17772968	     41.54146357	    -15.47266739	     -7.46303324	     34.40920002	      0.60055383	      7.05993809	     -4.77082257	     -7.49999987	     38.39850683	     -8.52602361	     -7.98053234	     30.62601060	      0.53452472	      3.64565079	     -7.92499384	     -7.49999987	    -28.03244122	     -2.52458512	      4.65680379	     21.61089071	    -16.91520587	      8.17219416	     50.56005140	     83.42193239	     21.81500220	     -8.92887357	      7.03343843	     54.74597237	     88.72720308
      4.23333330	    -12.10862862	      4.70690313	     -3.30528229	      0.61829792	      0.98522913	      0.17548406	     37.67848116	    -14.83129534	     -7.87227495	     31.04352403	      0.54181171	      5.63801461	     -4.42515973	     -7.49999987	     34.28088898	     -8.40465650	     -8.51773438	     26.75166171	      0.46690458	      1.89832397	     -7.57101380	     -7.49999987	    -27.51982020	     -2.53017316	      4.98093377	     19.79459821	    -16.74032526	      7.30273515	     44.97404708	     82.87553976	     19.56752870	     -8.20131110	      5.08088263	     49.69253622	     88.28269459
      4.25000000	    -10.51875359	      4.36132831	     -3.60536405	      0.62962053	      0.99065300	      0.18156351	     33.64291068	    -13.96982536	     -8.20848661	     27.61991226	      0.48205841	      4.52140081	     -4.03306302	     -7.49999987	     30.16028201	     -8.37467265	     -8.76001062	     22.90731455	      0.39980806	      0.37796201	     -7.11167263	     -7.49999987	    -26.54737934	     -2.38226759	      5.26558176	     17.80444463	    -16.23429854	      6.69607575	     40.28394747	     82.26671648	     16.99388667	     -7.78705661	      3.16103508	     43.97254392	     87.61218985
      4.26666670	     -9.16620427	      3.90241616	     -3.84120381	      0.63636419	      0.98924100	      0.19031572	     30.25060176	    -12.94283536	     -8.22404346	     24.77870065	      0.43246991	      3.64997064	     -4.09228468	     -7.49999987	     26.67216842	     -8.64187668	     -9.13898338	     19.69573288	      0.34375539	     -0.70470392	     -6.47822867	     -7.49999987	    -25.10509299	     -2.32289158	      5.55307389	     15.71211835	    -15.52054108	      5.82571830	     35.39863388	     83.28959087	     14.93894098	     -7.95409012	      1.68612957	     38.75310685	     89.00807191
      4.28333330	     -7.98091064	      3.45492115	     -4.07144442	      0.64173776	      0.99954094	      0.19338651	     27.14399226	    -12.00752402	     -8.07587717	     22.22402219	      0.38788236	      2.90403572	     -4.23256377	     -7.49999987	     23.41784281	     -8.95111428	     -9.59073099	     16.77218007	      0.29272976	     -1.89824413	     -5.92643311	     -7.49999987	    -23.70008106	     -2.20826874	      5.94086376	     13.63302518	    -14.90809220	      4.93393835	     31.33837543	     82.67095236	     12.90115599	     -8.29644935	      0.21232652	     34.20277326	     88.19886468
      4.30000000	     -7.18509485	      3.00655965	     -4.24964782	      0.64822619	      1.00316259	      0.19629699	     24.75108626	    -11.10803850	     -7.78213056	     20.06591059	      0.35021621	      2.33139094	     -4.29152887	     -7.49999987	     20.88243147	     -9.31205802	     -9.87201151	     14.34119678	      0.25030110	     -2.69628543	     -5.48005126	     -7.49999987	    -22.02990075	     -1.93917512	      5.99622765	     11.66744599	    -14.42146998	      4.04921993	     27.34271320	     82.39606187	     11.14097726	     -8.83787739	     -0.98110192	     29.99841374	     88.03586030
      4.31666670	     -6.53855893	      2.66095155	     -4.39891501	      0.64801834	      1.00620455	      0.19654234	     22.68264179	    -10.35676616	     -7.36751728	     18.07963682	      0.31554919	      1.66723832	     -4.59250270	     -7.49999987	     18.73548636	     -9.55918009	    -10.13395401	     12.16783818	      0.21236884	     -3.18792659	     -4.96450540	     -7.49999987	    -20.36732423	     -1.61061927	      6.28930386	      9.65837427	    -14.26429228	      2.80949776	     24.36190246	     81.93647099	      9.21258059	     -9.30521012	     -2.78472280	     26.50707993	     87.17241451
